<svg width="20" height="20" fill="none" xmlns="http://www.w3.org/2000/svg"><path d="M1.667 11.1V9.631c0-.866.708-1.583 1.583-1.583 1.508 0 2.125-1.067 1.367-2.375A1.583 1.583 0 015.2 3.516l1.44-.826c.659-.392 1.509-.159 1.9.5l.092.158c.75 1.308 1.984 1.308 2.742 0l.091-.158c.392-.659 1.242-.892 1.9-.5l1.442.825a1.583 1.583 0 01.584 2.158c-.759 1.308-.142 2.375 1.366 2.375.867 0 1.584.708 1.584 1.583V11.1c0 .867-.709 1.583-1.584 1.583-1.508 0-2.125 1.067-1.366 2.375a1.58 1.58 0 01-.584 2.159l-1.441.825a1.391 1.391 0 01-1.9-.5l-.092-.159c-.75-1.308-1.983-1.308-2.742 0l-.091.159c-.392.658-1.242.891-1.9.5L5.2 17.216a1.583 1.583 0 01-.583-2.159c.758-1.308.141-2.375-1.367-2.375A1.588 1.588 0 011.667 11.1z" fill="#000"/></svg>