<svg width="64" height="64" fill="none" xmlns="http://www.w3.org/2000/svg"><path d="M5.333 35.517v-4.693c0-2.774 2.267-5.067 5.067-5.067 4.827 0 6.8-3.413 4.373-7.6-1.386-2.4-.56-5.52 1.867-6.907l4.613-2.64c2.107-1.253 4.827-.506 6.08 1.6l.294.507c2.4 4.187 6.347 4.187 8.773 0l.294-.507c1.253-2.106 3.973-2.853 6.08-1.6l4.613 2.64c2.426 1.387 3.253 4.507 1.867 6.907-2.427 4.187-.454 7.6 4.373 7.6 2.773 0 5.066 2.267 5.066 5.067v4.693c0 2.773-2.266 5.067-5.066 5.067-4.827 0-6.8 3.413-4.373 7.6 1.386 2.426.56 5.52-1.867 6.906l-4.614 2.64c-2.106 1.254-4.826.507-6.08-1.6l-.293-.506c-2.4-4.187-6.346-4.187-8.773 0l-.293.506c-1.254 2.107-3.974 2.854-6.08 1.6l-4.614-2.64c-2.427-1.386-3.253-4.506-1.867-6.906 2.427-4.187.454-7.6-4.373-7.6-2.8 0-5.067-2.294-5.067-5.067z" fill="#1E86DB"/></svg>