<svg version="1.0" xmlns="http://www.w3.org/2000/svg" width="170.667" height="170.667" viewBox="0 0 128 128"><path d="M0 64v64h128V0H0v64zm86.5-41.2c.6.4 1 4.7 1 10.2-.1 8.9-.2 9.5-2 9-4.3-1.1-13.1-.3-16.8 1.5-8.2 3.9-12.7 10.6-13.4 20-.8 10.1 4.2 18.6 13.5 22.7 4.5 2 13.1 2.8 16.7 1.5 2-.7 2.1-.3 1.9 9.1-.1 5.3-.2 10-.3 10.4 0 .5-1.4.8-3.1.8-2.2 0-3.3-.7-4.4-2.8-3.5-6.8-7.4-7.6-13-2.7-3.4 2.9-2.8 2.8-6.1 1.3-2.2-1-2.5-1.7-2.5-6.4 0-7.6-2.3-9-11.6-6.9-1.6.3-2.7-.3-3.9-2.1-1.6-2.4-1.5-2.7 1-6.9 3.3-5.7 2.6-8.7-2.3-11-7.4-3.4-7.7-7.9-.7-10.8 5.8-2.4 6.6-5.5 2.9-11-2.5-3.8-2.6-4.3-1.2-6.6 1.3-2.4 1.9-2.6 6.9-2.3 6.9.3 8.6-1.3 9.1-8.3.3-4.4.6-5.1 3.1-5.9 2.4-.9 3.1-.6 6 2.2 4.7 4.5 8 4.1 11.3-1.5 2.4-4.2 5.2-5.4 7.9-3.5z"/></svg>