<svg width="40" height="40" viewBox="0 0 40 40" fill="none" xmlns="http://www.w3.org/2000/svg">
<path d="M30 24.985V27.994C30 28.526 29.7886 29.0363 29.4124 29.4125C29.0362 29.7887 28.5259 30 27.9939 30H27.8033C24.7167 29.6646 21.7518 28.61 19.1468 26.9208C16.7237 25.3803 14.669 23.3258 13.1284 20.9028C11.4171 18.2833 10.3483 15.297 10.0089 12.1866C9.98405 11.9238 10.0113 11.6586 10.0892 11.4063C10.1671 11.154 10.294 10.9196 10.4627 10.7164C10.6313 10.5133 10.8385 10.3454 11.0721 10.2225C11.3058 10.0996 11.5615 10.024 11.8245 10.0001H15.0142C15.501 9.99531 15.9729 10.1677 16.342 10.4851C16.7111 10.8025 16.9522 11.2433 17.0203 11.7253C17.1487 12.688 17.3842 13.6333 17.7225 14.5437C17.8574 14.9027 17.8866 15.2929 17.8066 15.668C17.7266 16.043 17.5408 16.3873 17.2711 16.66L15.9972 17.9339C17.4251 20.4449 19.5044 22.5241 22.0156 23.9519L23.2895 22.6781C23.5622 22.4084 23.9065 22.2226 24.2816 22.1426C24.6568 22.0626 25.0469 22.0918 25.406 22.2267C26.3164 22.565 27.2618 22.8005 28.2246 22.9288C28.7118 22.9976 29.1568 23.243 29.4749 23.6184C29.793 23.9938 29.9621 24.473 29.9498 24.9649L30 24.985Z" stroke="#2B2A29" stroke-width="2" stroke-linecap="round" stroke-linejoin="round"/>
</svg>
