<svg width="64" height="64" viewBox="0 0 64 64" fill="none" xmlns="http://www.w3.org/2000/svg">
<path d="M5.3335 35.5171V30.8237C5.3335 28.0504 7.60016 25.7571 10.4002 25.7571C15.2268 25.7571 17.2002 22.3437 14.7735 18.1571C13.3868 15.7571 14.2135 12.6371 16.6402 11.2504L21.2535 8.6104C23.3602 7.35707 26.0802 8.10374 27.3335 10.2104L27.6268 10.7171C30.0268 14.9037 33.9735 14.9037 36.4002 10.7171L36.6935 10.2104C37.9468 8.10374 40.6668 7.35707 42.7735 8.6104L47.3868 11.2504C49.8135 12.6371 50.6402 15.7571 49.2535 18.1571C46.8268 22.3437 48.8002 25.7571 53.6268 25.7571C56.4002 25.7571 58.6935 28.0237 58.6935 30.8237V35.5171C58.6935 38.2904 56.4268 40.5837 53.6268 40.5837C48.8002 40.5837 46.8268 43.9971 49.2535 48.1837C50.6402 50.6104 49.8135 53.7037 47.3868 55.0904L42.7735 57.7304C40.6668 58.9837 37.9468 58.2371 36.6935 56.1304L36.4002 55.6237C34.0002 51.4371 30.0535 51.4371 27.6268 55.6237L27.3335 56.1304C26.0802 58.2371 23.3602 58.9837 21.2535 57.7304L16.6402 55.0904C14.2135 53.7037 13.3868 50.5837 14.7735 48.1837C17.2002 43.9971 15.2268 40.5837 10.4002 40.5837C7.60016 40.5837 5.3335 38.2904 5.3335 35.5171Z" fill="#1E86DB"/>
</svg>
