<svg width="20" height="20" viewBox="0 0 20 20" fill="none" xmlns="http://www.w3.org/2000/svg">
<path d="M1.6665 11.0991V9.63242C1.6665 8.76575 2.37484 8.04909 3.24984 8.04909C4.75817 8.04909 5.37484 6.98242 4.6165 5.67408C4.18317 4.92408 4.4415 3.94908 5.19984 3.51575L6.6415 2.69075C7.29984 2.29908 8.14984 2.53242 8.5415 3.19075L8.63317 3.34908C9.38317 4.65742 10.6165 4.65742 11.3748 3.34908L11.4665 3.19075C11.8582 2.53242 12.7082 2.29908 13.3665 2.69075L14.8082 3.51575C15.5665 3.94908 15.8248 4.92408 15.3915 5.67408C14.6332 6.98242 15.2498 8.04909 16.7582 8.04909C17.6248 8.04909 18.3415 8.75742 18.3415 9.63242V11.0991C18.3415 11.9658 17.6332 12.6824 16.7582 12.6824C15.2498 12.6824 14.6332 13.7491 15.3915 15.0574C15.8248 15.8158 15.5665 16.7824 14.8082 17.2158L13.3665 18.0408C12.7082 18.4324 11.8582 18.1991 11.4665 17.5408L11.3748 17.3824C10.6248 16.0741 9.3915 16.0741 8.63317 17.3824L8.5415 17.5408C8.14984 18.1991 7.29984 18.4324 6.6415 18.0408L5.19984 17.2158C4.4415 16.7824 4.18317 15.8074 4.6165 15.0574C5.37484 13.7491 4.75817 12.6824 3.24984 12.6824C2.37484 12.6824 1.6665 11.9658 1.6665 11.0991Z" fill="black"/>
</svg>
