<svg width="20" height="20" viewBox="0 0 20 20" fill="none" xmlns="http://www.w3.org/2000/svg">
<path d="M1.66669 11.0991V9.63242C1.66669 8.76575 2.37502 8.04909 3.25002 8.04909C4.75835 8.04909 5.37502 6.98242 4.61669 5.67408C4.18335 4.92408 4.44169 3.94908 5.20002 3.51575L6.64169 2.69075C7.30002 2.29908 8.15002 2.53242 8.54169 3.19075L8.63335 3.34908C9.38335 4.65742 10.6167 4.65742 11.375 3.34908L11.4667 3.19075C11.8584 2.53242 12.7084 2.29908 13.3667 2.69075L14.8084 3.51575C15.5667 3.94908 15.825 4.92408 15.3917 5.67408C14.6334 6.98242 15.25 8.04909 16.7584 8.04909C17.625 8.04909 18.3417 8.75742 18.3417 9.63242V11.0991C18.3417 11.9658 17.6334 12.6824 16.7584 12.6824C15.25 12.6824 14.6334 13.7491 15.3917 15.0574C15.825 15.8158 15.5667 16.7824 14.8084 17.2158L13.3667 18.0408C12.7084 18.4324 11.8584 18.1991 11.4667 17.5408L11.375 17.3824C10.625 16.0741 9.39169 16.0741 8.63335 17.3824L8.54169 17.5408C8.15002 18.1991 7.30002 18.4324 6.64169 18.0408L5.20002 17.2158C4.44169 16.7824 4.18335 15.8074 4.61669 15.0574C5.37502 13.7491 4.75835 12.6824 3.25002 12.6824C2.37502 12.6824 1.66669 11.9658 1.66669 11.0991Z" fill="#1E86DB"/>
</svg>
