<?xml version="1.0" standalone="no"?>
<!DOCTYPE svg PUBLIC "-//W3C//DTD SVG 20010904//EN"
 "http://www.w3.org/TR/2001/REC-SVG-20010904/DTD/svg10.dtd">
<svg version="1.0" xmlns="http://www.w3.org/2000/svg"
 width="128.000000pt" height="128.000000pt" viewBox="0 0 128.000000 128.000000"
 preserveAspectRatio="xMidYMid meet">
<metadata>
Created by potrace 1.14, written by Peter Selinger 2001-2017
</metadata>
<g transform="translate(0.000000,128.000000) scale(0.100000,-0.100000)"
fill="#000000" stroke="none">
<path d="M0 640 l0 -640 640 0 640 0 0 640 0 640 -640 0 -640 0 0 -640z m865
412 c6 -4 10 -47 10 -102 -1 -89 -2 -95 -20 -90 -43 11 -131 3 -168 -15 -82
-39 -127 -106 -134 -200 -8 -101 42 -186 135 -227 45 -20 131 -28 167 -15 20
7 21 3 19 -91 -1 -53 -2 -100 -3 -104 0 -5 -14 -8 -31 -8 -22 0 -33 7 -44 28
-35 68 -74 76 -130 27 -34 -29 -28 -28 -61 -13 -22 10 -25 17 -25 64 0 76 -23
90 -116 69 -16 -3 -27 3 -39 21 -16 24 -15 27 10 69 33 57 26 87 -23 110 -74
34 -77 79 -7 108 58 24 66 55 29 110 -25 38 -26 43 -12 66 13 24 19 26 69 23
69 -3 86 13 91 83 3 44 6 51 31 59 24 9 31 6 60 -22 47 -45 80 -41 113 15 24
42 52 54 79 35z"/>
</g>
</svg>
